{"title":"Paramore-Monster.HD.720p.manurie","uid":6554989,"size":71961677,"categoryP":"video","categoryS":"music_videos","magnet":"?xt=urn:btih:c950a584dd5b9a7e42f99698c5b3c55c8859b4ba&amp;dn=Paramore-Monster.HD.720p.manurie&amp;tr=udp%3A%2F%2Ftracker.openbittorrent.com%3A80&amp;tr=udp%3A%2F%2Fopen.demonii.com%3A1337&amp;tr=udp%3A%2F%2Ftracker.coppersurfer.tk%3A6969&amp;tr=udp%3A%2F%2Fexodus.desync.com%3A6969","seeders":0,"leechers":1,"uploader":"chubby_1203","files":1,"time":1311255766,"description":"Video\nID                               : 1\nFormat                           : AVC\nFormat/Info                      : Advanced Video Codec\nFormat profile                   : &lt;a class=&quot;__cf_email__&quot; href=&quot;/cdn-cgi/l/email-protection&quot; data-cfemail=&quot;81c9e8e6e9c1cdb2afb0&quot;&gt;[email&amp;#160;protected]&lt;/a&gt;&lt;script cf-hash='f9e31' type=&quot;text/javascript&quot;&gt;\n/* &lt;![CDATA[ */!function(){try{var t=&quot;currentScript&quot;in document?document.currentScript:function(){for(var t=document.getElementsByTagName(&quot;script&quot;),e=t.length;e--;)if(t[e].getAttribute(&quot;cf-hash&quot;))return t[e]}();if(t&amp;&amp;t.previousSibling){var e,r,n,i,c=t.previousSibling,a=c.getAttribute(&quot;data-cfemail&quot;);if(a){for(e=&quot;&quot;,r=parseInt(a.substr(0,2),16),n=2;a.length-n;n+=2)i=parseInt(a.substr(n,2),16)^r,e+=String.fromCharCode(i);e=document.createTextNode(e),c.parentNode.replaceChild(e,c)}}}catch(u){}}();/* ]]&gt; */&lt;/script&gt;\nFormat settings, CABAC           : Yes\nFormat settings, ReFrames        : 1 frame\nCodec ID                         : avc1\nCodec ID/Info                    : Advanced Video Coding\nDuration                         : 3mn 20s\nBit rate mode                    : Variable\nBit rate                         : 2 714 Kbps\nMaximum bit rate                 : 5 629 Kbps\nWidth                            : 1 280 pixels\nHeight                           : 720 pixels\nDisplay aspect ratio             : 16:9\nFrame rate mode                  : Variable\nFrame rate                       : 23.976 fps\nMinimum frame rate               : 17.241 fps\nMaximum frame rate               : 24.390 fps\nColor space                      : YUV\nChroma subsampling               : 4:2:0\nBit depth                        : 8 bits\nScan type                        : Progressive\nBits/(Pixel*Frame)               : 0.123\nStream size                      : 64.9 MiB (95%)\nTagged date                      : UTC 2011-07-17 21:47:55\n\nAudio\nID                               : 2\nFormat                           : AAC\nFormat/Info                      : Advanced Audio Codec\nFormat version                   : Version 4\nFormat profile                   : LC\nCodec ID                         : 40\nDuration                         : 3mn 20s\nBit rate mode                    : Variable\nBit rate                         : 151 Kbps\nMaximum bit rate                 : 176 Kbps\nChannel(s)                       : 2 channels\nChannel positions                : Front: L R\nSampling rate                    : 44.1 KHz\nStream size                      : 3.61 MiB (5%)\nTitle                            : IsoMedia File Produced by Google, 5-11-2011\nEncoded date                     : UTC 2011-07-17 21:47:54\nTagged date                      : UTC 2011-07-17 21:47:55\n\n\nSEED YOU GUYS!\n\n-manurie","torrent":{"xt":"urn:btih:c950a584dd5b9a7e42f99698c5b3c55c8859b4ba","amp;dn":"Paramore-Monster.HD.720p.manurie","amp;tr":["udp%3A%2F%2Ftracker.openbittorrent.com%3A80","udp%3A%2F%2Fopen.demonii.com%3A1337","udp%3A%2F%2Ftracker.coppersurfer.tk%3A6969","udp%3A%2F%2Fexodus.desync.com%3A6969"],"infoHash":"c950a584dd5b9a7e42f99698c5b3c55c8859b4ba","infoHashBuffer":{"type":"Buffer","data":[201,80,165,132,221,91,154,126,66,249,150,152,197,179,197,92,136,89,180,186]},"announce":[],"urlList":[]}}